<svg width="36" height="36" viewBox="0 0 36 36" fill="none" xmlns="http://www.w3.org/2000/svg">
<rect width="36" height="36" rx="18" fill="#F15BB5"/>
<path d="M24.7629 16.236C25.0454 14.3447 23.6054 13.328 21.6364 12.6497L22.2751 10.0878L20.7152 9.69912L20.0934 12.1936C19.6838 12.0914 19.2628 11.995 18.8444 11.8995L19.4706 9.38865L17.9121 9L17.2729 11.5611C16.9335 11.4838 16.6004 11.4074 16.2771 11.327L16.2788 11.319L14.1282 10.782L13.7133 12.4476C13.7133 12.4476 14.8704 12.7128 14.8459 12.7293C15.4776 12.8869 15.5922 13.3049 15.5726 13.6362L14.8451 16.5549C14.8886 16.566 14.945 16.582 15.0072 16.6069L14.8428 16.566L13.8226 20.6546C13.7453 20.8465 13.5494 21.1343 13.1079 21.025C13.1235 21.0477 11.9744 20.7421 11.9744 20.7421L11.2002 22.5276L13.2301 23.0336C13.6076 23.1282 13.9776 23.2272 14.3414 23.3205L13.696 25.9122L15.2537 26.3009L15.8933 23.7371C16.3184 23.8526 16.7314 23.9592 17.1356 24.0596L16.4987 26.6114L18.0582 27L18.7036 24.4136C21.3628 24.9168 23.3629 24.7139 24.2037 22.3091C24.882 20.3725 24.1704 19.2554 22.7713 18.5266C23.7902 18.2907 24.5582 17.6205 24.7629 16.236ZM21.1994 21.2324C20.717 23.169 17.4568 22.1226 16.3992 21.8596L17.2556 18.4266C18.3127 18.6905 21.7017 19.2128 21.1994 21.2324ZM21.6813 16.208C21.2416 17.9696 18.5277 17.0746 17.6469 16.8552L18.4233 13.7415C19.3041 13.9609 22.1397 14.3705 21.6813 16.208Z" fill="white"/>
</svg>
