<svg width="36" height="36" viewBox="0 0 36 36" fill="none" xmlns="http://www.w3.org/2000/svg">
<rect width="36" height="36" rx="18" fill="#9B5DE5"/>
<path d="M27 13.8087L12.791 21.0434L9 22.9762V24.5305L24.1777 16.797C24.2131 17.0687 24.2309 17.3424 24.231 17.6164C24.2303 18.7039 23.9452 19.7723 23.404 20.7155C22.8628 21.6587 22.0843 22.444 21.1458 22.9933C20.2073 23.5427 19.1415 23.837 18.054 23.8471C16.9666 23.8572 15.8955 23.5827 14.9469 23.0508L14.8708 23.0912L13.5259 23.7766C14.6621 24.6015 16.0042 25.0962 17.4039 25.2061C18.8036 25.316 20.2065 25.0368 21.4575 24.3994C22.7085 23.7619 23.7589 22.7911 24.4927 21.594C25.2265 20.397 25.615 19.0204 25.6155 17.6164C25.6155 17.4207 25.6079 17.225 25.5934 17.0315C25.5728 16.7592 25.6332 16.4867 25.7669 16.2486C25.9007 16.0104 26.1018 15.817 26.3451 15.6927L27 15.3592V13.8087Z" fill="white"/>
<path d="M11.8261 18.428C11.7907 18.1581 11.7729 17.8861 11.7728 17.6139C11.7742 16.5277 12.0594 15.4607 12.6001 14.5186C13.1408 13.5766 13.9182 12.7921 14.8553 12.2429C15.7925 11.6937 16.8569 11.3989 17.943 11.3877C19.0291 11.3764 20.0994 11.6491 21.0477 12.1787L22.4733 11.4522C21.3369 10.6274 19.9945 10.1328 18.5946 10.0232C17.1947 9.91352 15.7917 10.1931 14.5407 10.831C13.2897 11.4688 12.2394 12.4402 11.5059 13.6376C10.7725 14.835 10.3844 16.212 10.3845 17.6162C10.3845 17.8101 10.3919 18.0033 10.4066 18.1957C10.4272 18.4682 10.3668 18.7407 10.2329 18.979C10.099 19.2172 9.89765 19.4105 9.65417 19.5345L9 19.8681V21.424L27 12.2518V10.6968L11.8261 18.428Z" fill="white"/>
</svg>
