<svg id="Capa_1" enable-background="new 0 0 512 512" height="512" viewBox="0 0 512 512" width="512" xmlns="http://www.w3.org/2000/svg"><g><path d="m491.396 256c-7.576 174.649-157.253 246.741-235.912 254.78-5.306.542-63.871-19.384-95.119-17.241-32.104-12.938-60.983-32.195-85.096-56.231-2.127-48.685-15.519-62.58-56.495-84.898-12.044-29.607-18.707-61.977-18.773-95.895 0-.172 27.299-43.955 27.299-43.955 0-33.668-6.524-35.541-8.988-51.824 13.022-32.461 32.501-61.636 56.849-85.936 35.326-5.006 69.58-18.398 85.134-56.311 25.032-10.096 52.026-16.35 80.252-18.031 113.063-1.488 253.064 93.288 250.849 255.542z" fill="#ffe07d"/><path d="m512 256c0 141.382-114.618 256-256 256-5.192 0-10.343-.155-15.453-.464 134.192-7.983 240.548-119.346 240.548-255.536 0-70.691-28.66-134.686-74.977-181.023-42.938-42.918-101.03-70.671-165.571-74.513 5.11-.31 10.261-.464 15.453-.464 70.691 0 134.686 28.66 181.023 74.977 46.317 46.337 74.977 110.332 74.977 181.023z" fill="#ffd064"/><path d="m177.665 61.492c-12.199 4.915-10.491 27.814-21.425 34.83-12.649 8.117-37.705.685-48.298 11.25l-32.78-32.77c24.117-24.075 53.013-43.35 85.134-56.31z" fill="#ffd064"/><path d="m352.219 18.708-17.369 42.99c-13.035-5.298-30.318 2.594-44.511 0-12.3-2.249-21.386-15.34-34.339-15.34h-.515v-46.358h.515c19.917 2.404 25.685 3.524 48.934 10.474 7.769 2.322 39.843 5.212 47.285 8.234z" fill="#ffd064"/><path d="m352.219 18.708-4.955 12.269c-27.866-15.164-58.865-25.301-91.779-29.185v-1.792h.515c34.037 0 66.509 6.645 96.219 18.708z" fill="#f9bd55"/><path d="m493.611 160.554-43 17.379c-5.044-12.573-26.632-16.813-33.903-28.042-7.981-12.324-1.859-31.485-12.177-41.846l32.78-32.78c12.683 12.732 11.322 32.912 21.119 48.068 8.801 13.615 29.058 21.992 35.181 37.221z" fill="#ffd064"/><path d="m493.611 160.554-26.826 10.848c-10.332-29.504-25.909-56.536-45.616-79.994l16.143-16.143c24.075 24.168 43.36 53.106 56.299 85.289z" fill="#f9bd55"/><path d="m512 256.515c-.038 18.011-19.24 31.078-22.813 48.032-3.17 15.038 9.646 34.096 3.961 48.032l-42.989-17.359c4.505-11.031-13.143-30.258-10.558-42.134 3.108-14.277 26.002-21.371 26.042-36.571z" fill="#ffd064"/><path d="m512 256.515c-.072 33.986-6.758 66.416-18.852 96.064l-26.774-10.817c9.478-26.661 14.659-55.352 14.721-85.247z" fill="#f9bd55"/><path d="m437.199 436.838c-10.716 10.739-31.438 11.478-43.918 20.186-15.558 10.857-23.326 29.083-41.144 36.309l-17.359-43c11.446-4.641 7.108-28.305 17.441-34.805 13.336-8.389 40.938-.199 52.024-11.285.062-.062.124-.124.175-.185z" fill="#ffd064"/><path d="m437.199 436.838c-24.075 24.127-52.951 43.474-85.062 56.495l-4.955-12.27c28.268-15.36 53.322-35.902 73.895-60.348z" fill="#f9bd55"/><path d="m255.485 465.642v44.566s-9.915 1.632-14.818 1.343c-28.245-1.667-55.255-7.918-80.298-18.021l17.369-42.99c11.534 4.649 28.729-15.775 41.176-13.228 13.479 2.758 22.281 28.298 36.571 28.33z" fill="#ffd064"/><path d="m255.485 510.207v1.793c-4.996-.01-9.962-.165-14.886-.464 5.006-.298 9.972-.741 14.886-1.329z" fill="#f9bd55"/><path d="m108.045 404.531-32.78 32.78c-.093-.093-.196-.196-.288-.288-23.972-23.983-43.216-52.694-56.196-84.619l42.989-17.369c4.975 12.219 39.189 3.77 46.276 14.711 8.13 12.553-10.552 44.272-.001 54.785z" fill="#ffd064"/><path d="m61.306 178.108c-5.18 12.934 13.62 29.615 11.094 43.676-2.177 12.112-26.042 21.478-26.042 34.216v.515h-46.358v-.515c0-33.666 6.501-65.818 18.317-95.261z" fill="#ffd064"/><path d="m256 465.642c-115.782 0-209.642-93.86-209.642-209.642 0-115.782 93.86-209.642 209.642-209.642 115.782 0 209.642 93.86 209.642 209.642 0 115.782-93.86 209.642-209.642 209.642z" fill="#fcaa72"/><g fill="#ea965e"><path d="m411.557 240.547c8.534 0 15.453 6.918 15.453 15.453 0 8.534-6.918 15.453-15.453 15.453-8.534 0-15.453-6.918-15.453-15.453.001-8.534 6.919-15.453 15.453-15.453z"/><path d="m388.035 211.187c-5.68 0-10.302-4.622-10.302-10.302s4.622-10.302 10.302-10.302 10.302 4.622 10.302 10.302-4.622 10.302-10.302 10.302z"/><path d="m388.035 321.417c-5.68 0-10.302-4.622-10.302-10.302s4.622-10.302 10.302-10.302 10.302 4.622 10.302 10.302-4.622 10.302-10.302 10.302z"/><path d="m100.443 240.547c-8.534 0-15.453 6.918-15.453 15.453 0 8.534 6.918 15.453 15.453 15.453 8.534 0 15.453-6.918 15.453-15.453-.001-8.534-6.919-15.453-15.453-15.453z"/><path d="m123.965 211.187c-5.68 0-10.302-4.622-10.302-10.302s4.622-10.302 10.302-10.302 10.302 4.622 10.302 10.302-4.622 10.302-10.302 10.302z"/><path d="m123.965 321.417c-5.68 0-10.302-4.622-10.302-10.302s4.622-10.302 10.302-10.302 10.302 4.622 10.302 10.302-4.622 10.302-10.302 10.302z"/></g><path d="m296.177 111.26h-10.302c-5.69 0-10.302 4.612-10.302 10.302v30.905h30.905v-30.905c.001-5.69-4.611-10.302-10.301-10.302z" fill="#edebed"/><path d="m234.366 111.26h-10.302c-5.69 0-10.302 4.612-10.302 10.302v30.905h30.905v-30.905c.001-5.69-4.611-10.302-10.301-10.302z" fill="#edebed"/><path d="m296.177 400.74h-10.302c-5.69 0-10.302-4.612-10.302-10.302v-30.905h30.905v30.905c.001 5.69-4.611 10.302-10.301 10.302z" fill="#edebed"/><path d="m234.366 400.74h-10.302c-5.69 0-10.302-4.612-10.302-10.302v-30.905h30.905v30.905c.001 5.69-4.611 10.302-10.301 10.302z" fill="#edebed"/><path d="m332.048 258.555c-1.813-1.216-1.813-3.894 0-5.11 16.266-10.91 26.97-29.453 26.97-50.499 0-33.563-27.217-60.781-60.781-60.781h-134.953c-5.687 0-10.302 4.615-10.302 10.302v10.302c0 5.687 4.615 10.302 10.302 10.302h16.483c1.71 0 3.091 1.38 3.091 3.091v159.678c0 1.71-1.381 3.091-3.091 3.091h-16.483c-5.687 0-10.302 4.615-10.302 10.302v10.302c0 5.687 4.615 10.302 10.302 10.302h134.954c33.563 0 60.781-27.217 60.781-60.781 0-10.528-2.679-20.418-7.386-29.051-4.709-8.635-11.447-15.99-19.585-21.45zm-12.682 71.628c-5.408 5.408-12.877 8.746-21.129 8.746h-81.384c-1.71 0-3.091-1.38-3.091-3.091v-53.568c0-1.71 1.381-3.091 3.091-3.091h81.384c16.504 0 29.875 13.372 29.875 29.875.001 8.252-3.337 15.721-8.746 21.129zm-21.129-97.362h-81.384c-1.71 0-3.091-1.38-3.091-3.091v-53.569c0-1.71 1.381-3.091 3.091-3.091h81.384c8.252 0 15.721 3.338 21.129 8.746s8.746 12.877 8.746 21.129c.001 16.504-13.371 29.876-29.875 29.876z" fill="#fff"/></g></svg>